<svg width="18" height="20" viewBox="0 0 18 20" fill="none" xmlns="http://www.w3.org/2000/svg">
<path d="M0.753348 20C0.503368 20 0.261453 19.8718 0.116304 19.6403C-0.105452 19.2805 -0.000622035 18.805 0.350155 18.5776C0.479177 18.4949 3.5515 16.5226 5.99081 16.3986H6.00291V15.9686C3.18056 14.7695 1.32185 11.747 1.32185 8.26545C1.32185 3.70891 4.74092 0 8.94621 0C13.1515 0 16.5706 3.70478 16.5706 8.26545C16.5706 11.7428 14.7925 14.6868 11.9984 15.919V16.4069C14.4538 16.6343 17.502 18.4908 17.635 18.5694C17.9898 18.7885 18.1067 19.2599 17.893 19.6237C17.6794 19.9876 17.2197 20.1075 16.8649 19.8884C16.8367 19.8718 13.9055 18.0897 11.8452 17.9326H11.2484C10.8332 17.9326 10.4985 17.5894 10.4985 17.1635V15.3856C10.4985 15.0589 10.7001 14.7654 11.0065 14.6578C13.4781 13.7854 15.0707 11.2756 15.0707 8.25718C15.0747 4.55654 12.329 1.53814 8.95024 1.53814C5.57149 1.53814 2.82576 4.55654 2.82576 8.26545C2.82576 11.288 4.499 13.8722 6.9867 14.6992C7.29716 14.8026 7.50682 15.0961 7.50682 15.4311V17.1677C7.50682 17.5935 7.17217 17.9367 6.75688 17.9367H6.03113C4.0192 18.0401 1.18476 19.8594 1.15654 19.8801C1.03155 19.9587 0.890433 20 0.753348 20Z" fill="#333333"/>
</svg>
