<svg width="20" height="20" viewBox="0 0 20 20" fill="none" xmlns="http://www.w3.org/2000/svg">
<path d="M0.476902 18.6642C0.476902 18.6642 4.71922 16.6749 6.66791 16.5467V15.976C3.55001 14.7519 1.58788 11.7701 1.58788 8.28371C1.58788 3.71381 5.3867 0 10.0546 0C14.7225 0 18.5213 3.71795 18.5213 8.28371C18.5213 11.8114 16.5054 14.8222 13.3248 16.0174V16.5467H13.3651C15.1749 16.6294 19.4934 18.6559 19.4934 18.6559C19.4934 18.6559 20.0579 19.0943 19.9951 19.4251C19.9324 19.756 19.6099 20 19.2381 20H12.3079H7.68929H0.763607C0.391789 20 0.0782071 19.7643 0.00653124 19.4376C-0.0651446 19.1108 0.476902 18.6642 0.476902 18.6642Z" fill="#24AC6B"/>
</svg>
