<svg width="20" height="20" viewBox="0 0 20 20" fill="none" xmlns="http://www.w3.org/2000/svg">
<path d="M6.65224 17.1699C5.87589 17.1699 5.25029 17.8014 5.25029 18.585C5.25029 19.3686 5.87589 20 6.65224 20C7.42858 20 8.05418 19.3686 8.05418 18.585C8.05418 17.8014 7.42858 17.1699 6.65224 17.1699Z" fill="#333333"/>
<path d="M16.4696 17.1699C15.6933 17.1699 15.0677 17.8014 15.0677 18.585C15.0677 19.3686 15.6933 20 16.4696 20C17.246 20 17.8716 19.3686 17.8716 18.585C17.8716 17.8014 17.2422 17.1699 16.4696 17.1699Z" fill="#333333"/>
<path d="M17.8602 16.4623H6.47132C5.46131 16.4623 4.57191 15.6559 4.45131 14.6251L3.26041 6.17665L2.58582 2.22823C2.54436 1.88207 2.23156 1.60059 1.93007 1.60059H1.03313C0.644953 1.60059 0.332153 1.28487 0.332153 0.893067C0.332153 0.501268 0.644953 0.185547 1.03313 0.185547H1.9263C2.94761 0.185547 3.84832 0.991968 3.97269 2.02282L4.64728 5.95602L5.84195 14.4425C5.87964 14.7696 6.17736 15.0473 6.47132 15.0473H17.8602C18.2484 15.0473 18.5612 15.363 18.5612 15.7548C18.5612 16.1466 18.2484 16.4623 17.8602 16.4623Z" fill="#333333"/>
<path d="M7.34943 13.6322C6.98387 13.6322 6.67861 13.3508 6.65222 12.978C6.62208 12.59 6.91226 12.2476 7.30044 12.221L16.8126 11.5135C17.163 11.5097 17.457 11.2358 17.4947 10.9201L18.5989 4.54478C18.6253 4.30894 18.5612 4.04648 18.4218 3.88671C18.3313 3.78401 18.2183 3.73075 18.0864 3.73075H5.93995C5.55177 3.73075 5.23897 3.41503 5.23897 3.02323C5.23897 2.63143 5.55554 2.30811 5.93995 2.30811H18.0788C18.614 2.30811 19.1077 2.53253 19.4657 2.93955C19.8765 3.40742 20.0612 4.06169 19.982 4.74639L18.8778 11.1255C18.7572 12.1183 17.8716 12.9247 16.8616 12.9247L7.40219 13.6284C7.38335 13.6284 7.3645 13.6322 7.34943 13.6322Z" fill="#333333"/>
</svg>
